<svg width="228" height="81" viewBox="0 0 228 81" fill="none" xmlns="http://www.w3.org/2000/svg">
<rect opacity="0.17" width="228" height="81" rx="10" fill="#EBFB5A"/>
<rect x="10" y="11" width="63" height="60" rx="7" fill="#EBFB5A"/>
<path d="M107.032 21.2383H102.833C102.756 20.695 102.599 20.2124 102.363 19.7905C102.126 19.3622 101.823 18.9979 101.452 18.6974C101.081 18.397 100.653 18.1669 100.167 18.0071C99.6879 17.8473 99.1669 17.7674 98.6044 17.7674C97.5881 17.7674 96.7028 18.0199 95.9485 18.5249C95.1942 19.0234 94.6094 19.7521 94.1939 20.7109C93.7784 21.6634 93.5707 22.8203 93.5707 24.1818C93.5707 25.5817 93.7784 26.7578 94.1939 27.7102C94.6158 28.6626 95.2038 29.3817 95.9581 29.8675C96.7124 30.3533 97.5849 30.5962 98.5756 30.5962C99.1317 30.5962 99.6463 30.5227 100.119 30.3757C100.599 30.2287 101.024 30.0146 101.395 29.7333C101.765 29.4457 102.072 29.0973 102.315 28.6882C102.564 28.2791 102.737 27.8125 102.833 27.2884L107.032 27.3075C106.924 28.2088 106.652 29.0781 106.217 29.9155C105.789 30.7464 105.211 31.4911 104.482 32.1495C103.76 32.8015 102.897 33.3192 101.893 33.7028C100.896 34.0799 99.7678 34.2685 98.5085 34.2685C96.7571 34.2685 95.1911 33.8722 93.8104 33.0795C92.4361 32.2869 91.3494 31.1396 90.5504 29.6374C89.7578 28.1353 89.3615 26.3168 89.3615 24.1818C89.3615 22.0405 89.7642 20.2188 90.5696 18.7166C91.375 17.2145 92.468 16.0703 93.8487 15.2841C95.2294 14.4915 96.7827 14.0952 98.5085 14.0952C99.6463 14.0952 100.701 14.255 101.673 14.5746C102.651 14.8942 103.517 15.3608 104.271 15.9744C105.025 16.5817 105.639 17.3263 106.112 18.2085C106.591 19.0906 106.898 20.1005 107.032 21.2383ZM109.933 34V19.2727H114.017V34H109.933ZM111.985 17.3743C111.377 17.3743 110.856 17.1729 110.422 16.7702C109.993 16.3611 109.779 15.8722 109.779 15.3033C109.779 14.7408 109.993 14.2582 110.422 13.8555C110.856 13.4464 111.377 13.2418 111.985 13.2418C112.592 13.2418 113.11 13.4464 113.538 13.8555C113.972 14.2582 114.19 14.7408 114.19 15.3033C114.19 15.8722 113.972 16.3611 113.538 16.7702C113.11 17.1729 112.592 17.3743 111.985 17.3743ZM121.374 25.4858V34H117.289V19.2727H121.182V21.8711H121.354C121.68 21.0146 122.227 20.337 122.994 19.8384C123.761 19.3335 124.691 19.081 125.784 19.081C126.807 19.081 127.699 19.3047 128.459 19.7521C129.22 20.1996 129.811 20.8388 130.233 21.6697C130.655 22.4943 130.866 23.4787 130.866 24.6229V34H126.781V25.3516C126.788 24.4503 126.558 23.7472 126.091 23.2422C125.624 22.7308 124.982 22.4751 124.164 22.4751C123.614 22.4751 123.128 22.5934 122.706 22.8299C122.291 23.0664 121.965 23.4116 121.728 23.8654C121.498 24.3129 121.38 24.853 121.374 25.4858ZM140.797 34.2876C139.282 34.2876 137.978 33.9808 136.885 33.3672C135.798 32.7472 134.961 31.8714 134.373 30.7401C133.785 29.6023 133.491 28.2567 133.491 26.7035C133.491 25.1886 133.785 23.859 134.373 22.7148C134.961 21.5707 135.789 20.679 136.856 20.0398C137.93 19.4006 139.189 19.081 140.634 19.081C141.605 19.081 142.51 19.2376 143.347 19.5508C144.191 19.8576 144.926 20.321 145.552 20.9411C146.185 21.5611 146.677 22.3409 147.029 23.2805C147.381 24.2138 147.556 25.3068 147.556 26.5597V27.6815H135.121V25.1502H143.711C143.711 24.5621 143.584 24.0412 143.328 23.5874C143.072 23.1335 142.718 22.7788 142.264 22.5231C141.816 22.261 141.295 22.13 140.701 22.13C140.081 22.13 139.531 22.2738 139.052 22.5614C138.579 22.8427 138.208 23.223 137.939 23.7024C137.671 24.1754 137.534 24.7028 137.527 25.2844V27.6911C137.527 28.4197 137.661 29.0494 137.93 29.5799C138.205 30.1104 138.591 30.5195 139.09 30.8072C139.589 31.0948 140.18 31.2386 140.864 31.2386C141.318 31.2386 141.733 31.1747 142.11 31.0469C142.487 30.919 142.81 30.7273 143.079 30.4716C143.347 30.2159 143.552 29.9027 143.692 29.532L147.47 29.7812C147.278 30.6889 146.885 31.4815 146.291 32.1591C145.703 32.8303 144.942 33.3544 144.009 33.7315C143.082 34.1023 142.011 34.2876 140.797 34.2876ZM88.9588 50.7866V47.3636H105.086V50.7866H99.0742V67H94.9705V50.7866H88.9588ZM106.136 67V52.2727H110.096V54.8423H110.249C110.518 53.9283 110.968 53.2379 111.601 52.7713C112.234 52.2983 112.963 52.0618 113.787 52.0618C113.992 52.0618 114.212 52.0746 114.449 52.1001C114.685 52.1257 114.893 52.1609 115.072 52.2056V55.8299C114.88 55.7724 114.615 55.7212 114.276 55.6765C113.937 55.6317 113.627 55.6094 113.346 55.6094C112.745 55.6094 112.208 55.7404 111.735 56.0025C111.269 56.2582 110.898 56.6161 110.623 57.0763C110.355 57.5366 110.22 58.0671 110.22 58.668V67H106.136ZM123.152 67.2876C121.663 67.2876 120.375 66.9712 119.288 66.3384C118.208 65.6992 117.374 64.8107 116.786 63.6729C116.198 62.5288 115.904 61.2024 115.904 59.6939C115.904 58.1726 116.198 56.843 116.786 55.7053C117.374 54.5611 118.208 53.6726 119.288 53.0398C120.375 52.4006 121.663 52.081 123.152 52.081C124.642 52.081 125.926 52.4006 127.007 53.0398C128.093 53.6726 128.931 54.5611 129.519 55.7053C130.107 56.843 130.401 58.1726 130.401 59.6939C130.401 61.2024 130.107 62.5288 129.519 63.6729C128.931 64.8107 128.093 65.6992 127.007 66.3384C125.926 66.9712 124.642 67.2876 123.152 67.2876ZM123.171 64.1236C123.849 64.1236 124.415 63.9318 124.869 63.5483C125.322 63.1584 125.664 62.6278 125.894 61.9567C126.131 61.2855 126.249 60.5217 126.249 59.6651C126.249 58.8086 126.131 58.0447 125.894 57.3736C125.664 56.7024 125.322 56.1719 124.869 55.782C124.415 55.392 123.849 55.1971 123.171 55.1971C122.487 55.1971 121.912 55.392 121.446 55.782C120.985 56.1719 120.637 56.7024 120.4 57.3736C120.17 58.0447 120.055 58.8086 120.055 59.6651C120.055 60.5217 120.17 61.2855 120.4 61.9567C120.637 62.6278 120.985 63.1584 121.446 63.5483C121.912 63.9318 122.487 64.1236 123.171 64.1236ZM142.501 60.7294V52.2727H146.585V67H142.664V64.3249H142.511C142.178 65.1879 141.625 65.8814 140.852 66.4055C140.085 66.9297 139.148 67.1918 138.043 67.1918C137.058 67.1918 136.192 66.968 135.444 66.5206C134.696 66.0732 134.111 65.4371 133.69 64.6126C133.274 63.788 133.063 62.8004 133.057 61.6499V52.2727H137.141V60.9212C137.148 61.7905 137.381 62.4776 137.841 62.9826C138.301 63.4876 138.918 63.7401 139.692 63.7401C140.184 63.7401 140.644 63.6282 141.072 63.4045C141.501 63.1744 141.846 62.8356 142.108 62.3881C142.376 61.9407 142.507 61.3878 142.501 60.7294ZM149.853 72.5227V52.2727H153.88V54.7464H154.062C154.241 54.3501 154.5 53.9474 154.838 53.5384C155.184 53.1229 155.631 52.7777 156.181 52.5028C156.737 52.2216 157.427 52.081 158.252 52.081C159.326 52.081 160.316 52.3622 161.224 52.9247C162.132 53.4808 162.857 54.3214 163.401 55.4464C163.944 56.565 164.216 57.968 164.216 59.6555C164.216 61.2983 163.95 62.6854 163.42 63.8168C162.896 64.9418 162.18 65.7951 161.272 66.3768C160.371 66.9521 159.361 67.2397 158.242 67.2397C157.45 67.2397 156.775 67.1087 156.219 66.8466C155.669 66.5845 155.219 66.2553 154.867 65.859C154.516 65.4563 154.247 65.0504 154.062 64.6413H153.937V72.5227H149.853ZM153.851 59.6364C153.851 60.5121 153.972 61.2759 154.215 61.9279C154.458 62.5799 154.81 63.0881 155.27 63.4524C155.73 63.8104 156.289 63.9893 156.948 63.9893C157.613 63.9893 158.175 63.8072 158.635 63.4428C159.096 63.0721 159.444 62.5607 159.68 61.9087C159.923 61.2504 160.045 60.4929 160.045 59.6364C160.045 58.7862 159.926 58.0384 159.69 57.3928C159.453 56.7472 159.105 56.2422 158.645 55.8778C158.185 55.5135 157.619 55.3313 156.948 55.3313C156.283 55.3313 155.721 55.5071 155.26 55.8587C154.806 56.2102 154.458 56.7088 154.215 57.3544C153.972 58 153.851 58.7607 153.851 59.6364ZM173.65 67.2876C172.135 67.2876 170.831 66.9808 169.738 66.3672C168.652 65.7472 167.814 64.8714 167.226 63.7401C166.638 62.6023 166.344 61.2567 166.344 59.7035C166.344 58.1886 166.638 56.859 167.226 55.7148C167.814 54.5707 168.642 53.679 169.71 53.0398C170.783 52.4006 172.043 52.081 173.487 52.081C174.459 52.081 175.363 52.2376 176.201 52.5508C177.044 52.8576 177.779 53.321 178.406 53.9411C179.039 54.5611 179.531 55.3409 179.882 56.2805C180.234 57.2138 180.41 58.3068 180.41 59.5597V60.6815H167.974V58.1502H176.565C176.565 57.5621 176.437 57.0412 176.181 56.5874C175.926 56.1335 175.571 55.7788 175.117 55.5231C174.67 55.261 174.149 55.13 173.554 55.13C172.934 55.13 172.385 55.2738 171.905 55.5614C171.432 55.8427 171.061 56.223 170.793 56.7024C170.525 57.1754 170.387 57.7028 170.381 58.2844V60.6911C170.381 61.4197 170.515 62.0494 170.783 62.5799C171.058 63.1104 171.445 63.5195 171.944 63.8072C172.442 64.0948 173.033 64.2386 173.717 64.2386C174.171 64.2386 174.587 64.1747 174.964 64.0469C175.341 63.919 175.664 63.7273 175.932 63.4716C176.201 63.2159 176.405 62.9027 176.546 62.532L180.324 62.7812C180.132 63.6889 179.739 64.4815 179.144 65.1591C178.556 65.8303 177.795 66.3544 176.862 66.7315C175.935 67.1023 174.865 67.2876 173.65 67.2876Z" fill="white"/>
</svg>
